# xmcd
#
# Track frame offsets:
#	150
#	26514
#	48339
#	69203
#	95392
#	112102
#	125525
#	135191
#	146969
#	186181
#
# Disc length: 2919 seconds
#
# Revision: 1
# Processed by: cddbd v1.5.2PL0 Copyright (c) Steve Scherf et al.
# Submitted via: audiograbber 1.83.01
#
DISCID=890b650a
DTITLE=Interstate Blues -  Redux
DYEAR=2009
DGENRE=Blues/Rock
TTITLE0=Got A Fever
TTITLE1=Velvet
TTITLE2=Southern Lips
TTITLE3=Set Me Free
TTITLE4=Movin'
TTITLE5=Razor's Fate
TTITLE6=Rattle Yer Cage
TTITLE7=Let It Go
TTITLE8=Voodoo Child (Slight Return)
TTITLE9=Wounds
EXTD=
EXTT0=
EXTT1=
EXTT2=
EXTT3=
EXTT4=
EXTT5=
EXTT6=
EXTT7=
EXTT8=
EXTT9=
PLAYORDER=
